<?xml version="1.0" encoding="utf-8"?>
<!-- Generator: Adobe Illustrator 16.0.0, SVG Export Plug-In . SVG Version: 6.00 Build 0)  -->
<!DOCTYPE svg PUBLIC "-//W3C//DTD SVG 1.1//EN" "http://www.w3.org/Graphics/SVG/1.1/DTD/svg11.dtd">
<svg version="1.1" id="Layer_1" xmlns="http://www.w3.org/2000/svg" xmlns:xlink="http://www.w3.org/1999/xlink" x="0px" y="0px"
	 width="281.578px" height="349.348px" viewBox="0 0 281.578 349.348" enable-background="new 0 0 281.578 349.348"
	 xml:space="preserve">
<g>
	<path fill="#B2AFA9" d="M188.975,164.061c-16.004-0.021-32.009-0.041-48.011-0.061c-0.022-9.947-0.045-19.895-0.068-29.839
		c13.646-0.063,27.293-0.15,40.941-0.186c28.666-0.069,51.711-23.164,51.705-51.842c-0.006-28.191-23.254-51.243-51.705-51.327
		c-13.644-0.041-27.284-0.177-40.926-0.27c0.104-10.104,0.209-20.204,0.313-30.307c17.135-0.168,34.316-0.749,51.375,0.935
		c17.047,1.681,31.815,9.194,44.475,20.626c9.123,8.236,16.156,18.085,20.566,29.63c1.198,3.144,3.022,4.993,6.424,5.202
		c0.82,0.05,1.629,0.309,2.444,0.464c10.523,2.002,11.787,3.291,14.076,13.545c2.022,9.058,0.783,17.791-2.239,26.399
		c-1.021,2.909-2.752,4.654-6.099,4.964c-7.238,0.667-11.789,3.394-14.914,11.343c-10.231,26.021-29.933,42.092-57.058,48.937
		c-3.047,0.771-6.2,1.112-9.305,1.653C189.977,164.091,189.643,164.112,188.975,164.061z"/>
	<path fill="#E1E3DF" d="M140.896,134.162c0.022,9.944,0.045,19.892,0.067,29.839c-14.803,0.004-29.606,0.092-44.409-0.01
		c-18.079-0.123-33.771-6.563-47.925-17.688c-12.792-10.054-21.186-22.949-26.669-37.997c-0.502-1.379-0.672-2.88-0.996-4.325
		c-4.583-16.104-3.796-32.101,1.004-48.011C28.151,37.68,39.77,23.588,55.794,13.168C69.11,4.511,83.927,0.213,99.815,0.069
		c13.8-0.125,27.603,0.096,41.407,0.163c-0.103,10.104-0.207,20.205-0.312,30.309c-14.318,0.083-28.638,0.064-42.955,0.269
		c-28.263,0.4-51.87,26.217-49.627,54.148c-0.124,24.343,21.596,46.86,47.192,48.862c3.947,0.311,9.101,0.471,11.563,2.479
		c2.926,2.388,0.667,6.229,1.03,10.295c0.12,1.348,0.083,2.736,1.577,3.365c1.476,0.621,2.542-0.209,3.507-1.197
		c1.625-1.663,3.464-3.173,4.824-5.031c5.751-7.856,13.163-11.631,22.999-9.85L140.896,134.162z"/>
	<path fill="#B3B0A9" d="M92.952,183.99c7.467-4.16,15.921-4.672,24.038-5.688c21.908-2.74,43.785-1.881,65.376,3.084
		c17.715,4.074,30.393,15.264,40.231,29.852c7.662,11.355,13.387,23.725,16.605,37.147c2.813,11.718,0.141,14.491-11.523,11.698
		c-8.453-2.023-16.574-5.025-24.119-9.33c-3.395-1.937-4.596-1.38-5.862,2.351c-8.324,24.499-32.826,41.206-56.776,39.923
		c0-30.818,0.011-61.641-0.01-92.461c-0.005-8.314-3.224-11.553-11.379-11.563c-10.329-0.015-20.66-0.132-30.986,0.057
		C94.759,189.129,92.86,187.844,92.952,183.99z"/>
	<path fill="#E2E4DF" d="M92.952,183.99c-0.092,3.854,1.807,5.141,5.596,5.069c10.326-0.188,20.657-0.069,30.986-0.057
		c8.155,0.011,11.374,3.247,11.379,11.563c0.021,30.82,0.009,61.643,0.01,92.461c-19.033,0.623-34.244-7.477-46.488-21.302
		c-4.88-5.51-8.422-12.207-11.135-19.185c-0.414-1.064-0.525-2.294-1.665-2.94c0.138-12.355-3.561-24.092-5.667-36.152
		c-8.602,12.601-11.256,26.055-7.007,40.662c-6.889,4.66-14.568,6.657-22.809,6.896c-3.343,0.096-3.905-1.675-4.313-4.615
		c-1.017-7.336,1.878-13.85,4.418-20.146c5.564-13.803,11.962-27.348,22.963-37.856c5.365-5.126,11.19-9.814,18.016-13.045
		C89.08,184.467,90.891,183.785,92.952,183.99z M107.838,208.963c-4.483,0.044-8.58,4.021-8.666,8.414
		c-0.089,4.559,4.326,8.76,9.066,8.629c4.735-0.133,8.766-3.99,8.687-8.314C116.822,211.995,113.607,208.908,107.838,208.963z"/>
	<path opacity="0.15" enable-background="new    " d="M144.764,348.979c-18.149,0.037-32.478,0.512-46.706-1.08
		c-7.861-0.879-15.652-2.546-23.402-4.196c-3.484-0.743-7.228-0.494-10.423-2.695c-2.068-1.425-4.747-2.661-4.813-5.221
		c-0.081-3.078,2.886-4.307,5.413-5.142c7.064-2.332,14.354-3.619,21.721-4.689c24.105-3.512,48.366-3.314,72.584-2.783
		c13.682,0.301,27.375,1.573,41.016,3.416c6.018,0.813,11.5,2.906,17.289,4.129c2.615,0.553,5.057,1.963,5.244,4.619
		c0.188,2.691-2.406,4.297-4.57,5.415c-4.758,2.454-10.121,3.317-15.27,4.083C182.333,347.879,161.734,350.301,144.764,348.979z"/>
	<path fill="#B4B2AC" d="M21.969,55.973c-4.8,15.91-5.587,31.904-1.004,48.011c-4.743,0.592-9.124-0.972-13.59-2.172
		c-2.5-0.671-3.296-2.607-4.092-4.605c-4.72-11.854-4.195-23.616,0.583-35.338c0.712-1.748,1.71-2.607,3.558-2.945
		C12.29,58.034,17.123,56.968,21.969,55.973z"/>
	<path fill="#B4B3AD" d="M68.961,254.111c-4.249-14.607-1.594-28.063,7.007-40.661c2.107,12.062,5.806,23.796,5.667,36.151
		C77.189,250.483,73.831,254.418,68.961,254.111z"/>
	<path fill="#2A2545" d="M181.837,30.809c-13.644-0.041-27.284-0.177-40.926-0.27c-14.318,0.083-28.638,0.064-42.955,0.269
		c-28.263,0.4-51.87,26.217-49.627,54.148C48.204,109.3,69.924,131.818,95.52,133.82c3.947,0.311,9.101,0.471,11.563,2.479
		c2.926,2.388,0.667,6.229,1.03,10.295c0.12,1.348,0.083,2.736,1.577,3.365c1.476,0.621,2.542-0.209,3.507-1.197
		c1.625-1.663,3.464-3.173,4.824-5.031c5.751-7.856,12.768-9.567,22.875-9.567l0,0c13.646-0.063,27.293-0.15,40.941-0.186
		c28.666-0.069,51.711-23.164,51.705-51.842C233.537,53.944,210.291,30.893,181.837,30.809z M92.892,96.119
		c-8.542-0.04-15.044-6.74-14.947-15.402c0.093-8.321,6.629-14.757,15.018-14.791c8.666-0.035,15.242,6.506,15.179,15.098
		C108.079,89.667,101.52,96.16,92.892,96.119z M159.041,101.974c-1.496,8.175-7.896,13.653-18.063,15.146
		c-10.354-1.295-16.837-6.693-18.464-15.109c-0.543-2.813,0.079-3.913,3.124-3.839c5.105,0.124,10.22-0.11,15.33-0.193
		c4.972,0.081,9.949,0.321,14.914,0.186C158.917,98.078,159.561,99.123,159.041,101.974z M188.503,96.135
		c-8.532-0.047-15.244-6.721-15.207-15.12c0.037-8.416,6.804-15.158,15.205-15.148c8.472,0.008,15.192,6.699,15.211,15.146
		C203.73,89.437,196.947,96.182,188.503,96.135z"/>
	<path fill="#B3B1AA" d="M107.838,208.963c5.769-0.056,8.984,3.031,9.087,8.729c0.079,4.324-3.952,8.184-8.687,8.314
		c-4.741,0.131-9.155-4.07-9.066-8.629C99.258,212.985,103.355,209.007,107.838,208.963z"/>
	<path fill="#8ACABC" d="M188.501,65.866c8.472,0.008,15.192,6.699,15.211,15.146c0.019,8.424-6.767,15.168-15.209,15.122
		c-8.532-0.047-15.244-6.721-15.207-15.12C173.333,72.6,180.1,65.858,188.501,65.866z"/>
	<path fill="#F1F1F3" d="M140.977,117.12c-10.354-1.295-16.837-6.693-18.464-15.109c-0.543-2.813,0.079-3.913,3.124-3.839
		c5.105,0.124,10.22-0.11,15.33-0.193c4.973,0.081,9.949,0.321,14.914,0.186c3.035-0.084,3.682,0.96,3.158,3.812
		C157.542,110.149,151.143,115.626,140.977,117.12z"/>
	<path fill="#8BCABD" d="M92.963,65.926c8.666-0.035,15.242,6.506,15.179,15.098c-0.063,8.645-6.623,15.137-15.25,15.097
		c-8.542-0.04-15.044-6.74-14.947-15.402C78.038,72.396,84.574,65.959,92.963,65.926z"/>
</g>
</svg>
